<?xml version="1.0" encoding="UTF-8"?>
<svg id="Layer_2" data-name="Layer 2" xmlns="http://www.w3.org/2000/svg" viewBox="0 0 165.34 206.47">
  <defs>
    <style>
      .cls-1 {
        fill: #fff;
      }

      .cls-1, .cls-2, .cls-3, .cls-4, .cls-5, .cls-6, .cls-7, .cls-8, .cls-9 {
        stroke-width: 0px;
      }

      .cls-2 {
        fill: #6f72fb;
      }

      .cls-3 {
        fill: #ca7260;
      }

      .cls-4 {
        fill: #e9bcfd;
      }

      .cls-5 {
        fill: #efbf69;
      }

      .cls-6 {
        fill: #352d46;
      }

      .cls-7 {
        fill: #eaa68f;
      }

      .cls-8 {
        fill: #c5d579;
      }

      .cls-9 {
        fill: #f4ece5;
      }
    </style>
  </defs>
  <g id="OBJECTS">
    <g>
      <path class="cls-1" d="m6.24,206.47c-3.44,0-6.24-2.79-6.24-6.24V23.47c0-3.44,2.79-6.24,6.24-6.24h24.12l6.13-11.39,1.39-2.59c1.11-2.04,3.23-3.25,5.47-3.25.52,0,1.05.07,1.57.2l.42.11,2.35.64,2.19.58,45.38,12.19c1.83.49,3.33,1.79,4.09,3.52h59.76c3.44,0,6.24,2.79,6.24,6.24v176.76c0,3.44-2.79,6.24-6.24,6.24H6.24Z"/>
      <g>
        <polygon class="cls-2" points="159.64 23.35 159.64 149.55 145.57 187.24 102.98 200.11 86.08 200.11 84.35 195.55 82.89 200.11 6.77 200.11 6.77 23.35 159.64 23.35"/>
        <g>
          <g>
            <path class="cls-7" d="m158.76,149.06c-14.06-9.02-25.74-16.44-29.72-16.72-3.61-.25-36.79-3.53-43.04-4.15-.65-.07-1.02-.1-1.02-.1l-.49.15-1.44.43h-.01l-.16.05-14.96,4.43c-.39.11-.73.34-.98.63-.43.49-.61,1.15-.47,1.83.77,3.37,3.02,10.01,8.94,10.8l-.41.65-8.09,13.15s.35,3.38,3.56,4.46h.01c.58.2,1.27.31,2.06.32l-12.2.23c-1.01.02-1.87.76-2.02,1.76-.46,3.28-.32,10.29,8.6,13,0,0-.03.15-.08.41-.32,1.8-1.3,9.02,3.8,10.87,3.32,1.21,7.83,1.81,12.23,2.41,1.05.14,2.1.27,3.12.43,2.22.31,4.33.67,6.14,1.14,2.14.56,6.13,2.48,10.79,4.86h56.71v-50.5c-.29-.18-.59-.36-.88-.55Zm-78.43,15.71c.43-.19,1.4-.63,2.56-1.41.98-.65,2.08-1.56,3.12-2.75,1.03-1.2,2-2.68,2.69-4.5.02.02.05.04.07.07.64.73,5.93,6.43,13.86,8.8.69.21,1.4.39,2.13.54l-18.75-.5-3.12-.08-2.82-.07s.08-.03.25-.09h.01Z"/>
            <g>
              <path class="cls-6" d="m123.95,189.48c-.91-.56-1.52-1.53-2.05-2.49-1.97-3.59-3.32-7.91-4.24-13.59-.43-2.67-2.61-5.51-4.59-7.13-.22-.18-.55-.15-.73.07-.18.22-.15.55.07.73,1.82,1.5,3.83,4.1,4.22,6.5.94,5.8,2.32,10.22,4.35,13.92.59,1.09,1.3,2.19,2.41,2.88.09.05.18.08.27.08.17,0,.34-.09.44-.25.15-.24.08-.56-.17-.72Z"/>
              <path class="cls-6" d="m111.16,166.14c-.28-.03-.55.16-.59.44-.74,5.12-1.4,10.29-1.98,15.47-3.35-.23-30.88-2.1-34.76-2.1s-9.99,0-13.37-4.91c-2.89-4.18-1.59-8.31-1.15-9.44l45.44.43h0c.28,0,.52-.23.52-.51,0-.29-.23-.52-.51-.52l-45.79-.44c-.23,0-.39.11-.47.29-.11.22-2.57,5.46,1.1,10.78,3.69,5.36,10.03,5.36,14.23,5.36,3.78,0,31.27,1.87,34.65,2.1-.47,4.25-.9,8.5-1.26,12.73-.02.29.19.54.47.56.02,0,.03,0,.04,0,.27,0,.49-.2.52-.48.83-9.71,1.95-19.52,3.34-29.17.04-.28-.16-.55-.44-.59Z"/>
              <path class="cls-6" d="m74.37,146.91c3.37.78,5.92,1,7.71,1,2.18,0,3.24-.32,3.32-.35.27-.09.42-.38.34-.65-.09-.27-.38-.43-.65-.34-.03,0-3.32.99-10.47-.68-5.77-1.34-7.16-8.52-7.47-11,1.04.21,2.09.31,3.15.31,5.11,0,10.34-2.32,14.1-6.44.19-.21.18-.54-.03-.73-.21-.19-.54-.18-.73.03-4.33,4.74-10.98,7-16.66,5.73-.1-.16-.27-.27-.46-.25-.22.01-.4.16-.46.36-.04.05-.07.11-.09.18-.04.16,0,.31.09.43.19,2.07,1.39,10.78,8.33,12.39Z"/>
            </g>
            <g>
              <path class="cls-9" d="m86,121v79.11h-3.12v-78.95c-.45.02-.89.03-1.36.03-48.36,0-47-61.29-46.52-70.5.04-.75.07-1.15.07-1.15h94.48s4,67.49-43.56,71.47Z"/>
              <g>
                <path class="cls-3" d="m42.99,58.03h79.07s3.55,57.5-40.2,57.5-38.87-57.5-38.87-57.5Z"/>
                <g>
                  <rect class="cls-6" x="62.94" y="4.26" width="1.04" height="93.86" transform="translate(-15.12 29.43) rotate(-23.42)"/>
                  <g>
                    <path class="cls-4" d="m94.17,19.62s-2.92,4.65-9.75,10.58c-.1.09-.8-.19-.9-.11-.08.07.44.51.35.57-5.24,4.48-12.68,9.6-22.71,14.01-1.81.79-3.58,1.5-5.31,2.11-.11.04-.37-.38-.48-.34-.1.04-.07.54-.17.57-6.66,2.29-12.6,3.29-17.59,3.59-.13,0-.21-.68-.34-.68-.1,0-.26.71-.36.71-10,.47-15.99-1.83-15.99-1.83L42.51,8.68l.35-.21.57-1.51.24-.44.48.43.16-.73,2.28.62,1.63.65.59-.06,45.37,12.18Z"/>
                    <g>
                      <g>
                        <path class="cls-6" d="m43.43,6.96l-5.82,43.64c-.24,0-.47.03-.7.04l5.6-41.96.92-1.72Z"/>
                        <path class="cls-6" d="m55.86,46.78c-.22.07-.44.15-.66.23L43.66,6.52l.22-.4.42.11,11.55,40.55Z"/>
                      </g>
                      <path class="cls-6" d="m84.43,30.2c-.18.16-.36.31-.55.47L46.58,6.85l2.22.59,35.62,22.76Z"/>
                    </g>
                  </g>
                </g>
                <g>
                  <path class="cls-5" d="m102.5,104.01c-17.11,12.15-33.96-4.61-33.96-4.61l2.66-1.85,26.42-4.44,8.4-19.81,1.97-1.38s11.62,19.94-5.5,32.09Z"/>
                  <path class="cls-9" d="m100.33,100.53c-12.66,8.99-25.16.31-29.13-2.98l2.63-1.83,8.28-1.46,6.26-8.67.91-.64,1.07,2.79.06-3.58.7-.49,2.3,1.85-1.3-2.54,1.01-.7,7.65-1.67,3.77-6.27,1.48-1.04c2.09,4.54,6.95,18.26-5.69,27.24Z"/>
                  <g>
                    <polygon class="cls-5" points="88.37 85.59 86.01 101 73.83 95.72 88.37 85.59"/>
                    <path class="cls-5" d="m97.89,98.42c-5.5,4.26-10.91,2.75-10.91,2.75l2.3-16.22,1.14-.79,7.47,14.26Z"/>
                    <path class="cls-5" d="m105.25,90.27c-1.86,5.76-6.39,7.27-6.39,7.27l-7.75-13.87,1-.69,13.14,7.29Z"/>
                    <path class="cls-5" d="m105.69,88.22l-12.57-5.95,11.41-7.95c4.13,4.9,1.16,13.9,1.16,13.9Z"/>
                  </g>
                </g>
                <g>
                  <path class="cls-5" d="m54.13,80.43c-11.47-14.96,3.01-30.64,3.01-30.64l1.75,2.33,4.86,23.57,18.06,6.88,1.3,1.73s-17.52,11.09-28.99-3.87Z"/>
                  <path class="cls-9" d="m57.18,78.37c-8.49-11.07-1.11-22.58,1.72-26.25l1.73,2.3,1.58,7.38,7.99,5.33.6.8-2.47,1.06,3.21-.06.46.61-1.59,2.12,2.24-1.25.66.88,1.76,6.81,5.76,3.17.98,1.3c-4,2.03-16.16,6.85-24.64-4.21Z"/>
                  <g>
                    <polygon class="cls-5" points="70.19 67.14 56.28 65.53 60.62 54.42 70.19 67.14"/>
                    <path class="cls-5" d="m58.99,76.11c-4-4.79-2.83-9.7-2.83-9.7l14.64,1.53.75.99-12.56,7.18Z"/>
                    <path class="cls-5" d="m66.55,82.45c-5.23-1.48-6.74-5.49-6.74-5.49l12.19-7.42.65.87-6.11,12.03Z"/>
                    <path class="cls-5" d="m68.4,82.78l4.92-11.48,7.51,9.98c-4.26,3.87-12.44,1.5-12.44,1.5Z"/>
                  </g>
                </g>
                <g>
                  <g>
                    <path class="cls-1" d="m72.96,97l-.18-.56-2.51-8.2-.89-2.91h0c-.17-.02-.34-.04-.52-.06.03.06.06.12.08.2l.85,2.79,2.59,8.46.14.43c.02.06.03.11.04.18l.45-.07c-.01-.08-.03-.16-.05-.24Zm.05.24c-.01-.08-.03-.16-.05-.24l-.18-.56-2.51-8.2-.89-2.91h0c-.3-.94-1.21-1.55-2.19-1.45l-2.67.29-5.95.65h-.01l-5.93.64c-.6.07-1.14.4-1.48.9-.34.5-.45,1.12-.27,1.72l3.77,13.16c.18.61.62,1.09,1.17,1.33.38.16.81.21,1.24.11l12.2-2.62,2.14-.46c.54-.11,1-.44,1.3-.89.02-.02.03-.05.05-.08.25-.42.33-.93.24-1.4Zm-1.68,1.93l-2.46.53-11.88,2.55c-.82.18-1.64-.31-1.87-1.12l-3.78-13.17c-.14-.45-.05-.94.21-1.33.26-.4.69-.64,1.15-.7l6.46-.71,6.33-.69h.01l1.76-.2c.28-.03.55.02.8.12.36.15.65.43.82.8.03.06.06.12.08.2l.85,2.79,2.59,8.46.14.43c.02.06.03.11.04.18.07.38.01.77-.19,1.1-.01.01-.01.02-.02.03-.23.37-.59.63-1.03.73Zm1.63-2.17l-.18-.56-2.51-8.2-.89-2.91h0c-.17-.02-.34-.04-.52-.06.03.06.06.12.08.2l.85,2.79,2.59,8.46.14.43c.02.06.03.11.04.18l.45-.07c-.01-.08-.03-.16-.05-.24Z"/>
                    <path class="cls-1" d="m68.96,90.67c-.06-.09-.14-.19-.24-.23-.16-.06-.35.04-.44.19-.09.15-.11.32-.13.49-.16,2.04.24,4.43,1.41,6.15.52.76,1.44.69,1.47-.37.02-.89-.52-2.09-.74-2.96-.29-1.15-.64-2.3-1.33-3.28Z"/>
                  </g>
                  <path class="cls-1" d="m53.52,90.05c.38.51.84.99,1.07,1.59.3.77.18,1.62.19,2.45,0,.82.2,1.74.88,2.2.67.45,1.64.26,2.23-.3.59-.56.84-1.39.87-2.2.01-.45-.04-.91-.22-1.32-.56-1.25-2.07-1.66-3.29-2.26-.86-.42-.95-.87-.64-1.7.2-.53.42-.84-.28-1.06-1.75-.56-1.42,1.77-.81,2.61Z"/>
                </g>
                <g>
                  <g>
                    <path class="cls-1" d="m115.66,69.62l-7.15-5.69h-.01l-4.29-3.43c-.48-.37-1.09-.53-1.68-.41-.59.11-1.1.5-1.4,1.03l-2.73,4.99-3.85,7.02c-.31.56-.32,1.22-.1,1.77.16.38.43.72.8.96l3.7,2.37,2.36,1.52,1.57,1,3.79,2.43.94.6c.33.21.71.31,1.09.31.18.01.36-.02.54-.06.55-.15,1.03-.52,1.29-1.03l.84-1.6,4.84-9.21c.46-.87.23-1.95-.54-2.57Zm.14,2.36l-4.58,8.73-1.09,2.08c-.22.39-.57.69-1.01.8-.15.04-.29.05-.44.05-.3-.01-.59-.09-.84-.25l-1.13-.73-3.66-2.35-1.51-.97-2.19-1.4-3.86-2.47c-.71-.45-.95-1.38-.54-2.11l4.01-7.34,2.57-4.68c.23-.42.62-.71,1.09-.8.46-.09.94.02,1.31.32l4.03,3.21,7.41,5.9c.23.18.38.4.49.64.18.43.17.91-.06,1.35Z"/>
                    <path class="cls-1" d="m112.13,75.68c.02-.11.03-.23-.01-.33-.07-.15-.28-.21-.44-.17-.17.04-.31.15-.44.26-1.55,1.33-2.95,3.32-3.33,5.36-.17.91.54,1.5,1.3.77.64-.62,1.1-1.85,1.56-2.62.6-1.02,1.16-2.08,1.36-3.26Z"/>
                  </g>
                  <path class="cls-1" d="m101.6,64.37c-.09.63-.1,1.29-.36,1.88-.33.76-1.01,1.28-1.59,1.87-.58.59-1.09,1.38-.92,2.18.16.79.99,1.34,1.79,1.36.81.02,1.58-.4,2.17-.95.33-.31.61-.67.77-1.09.48-1.28-.3-2.64-.74-3.93-.31-.91-.06-1.29.75-1.66.51-.23.89-.3.55-.95-.85-1.63-2.26.26-2.41,1.29Z"/>
                </g>
                <path class="cls-9" d="m79.06,68.13c-28.89,0-38.32-10.71-38.72-11.18l.79-.67c.1.11,10.18,11.47,40.64,10.79,30.61-.7,43.43-11.1,43.56-11.2l.67.8c-.53.44-13.24,10.74-44.2,11.44-.93.02-1.85.03-2.74.03Z"/>
              </g>
            </g>
            <path class="cls-6" d="m141.03,149.16c-.14,0-13.82.86-21.8-.87-8.02-1.74-31.74-9.29-31.98-9.37-.25-.08-.53.04-.63.28-.2.45-4.85,11.11,1.71,17.27,6.32,5.93,12.69,9.07,20.63,10.18,7.36,1.03,8.86,1.55,8.92,1.57,4.46,1.56,11.86,4.38,12.7,5.34.1.12.25.18.39.18.12,0,.24-.04.34-.13.22-.19.24-.52.05-.73-1.29-1.48-11.93-5.21-13.12-5.63-.06-.02-1.56-.56-9.13-1.62-7.72-1.08-13.91-4.13-20.06-9.91-4.45-4.18-3.15-10.91-2.15-14.18.16,2.33.79,4.86,2.83,6.76.65.6,1.47,1.13,2.51,1.61,1.77.81,3.62,1.22,5.38,1.22,1.41,0,2.77-.26,3.99-.79,2.03-.87,3.72-2.49,4.7-4.48,5.04,1.48,9.85,2.83,12.7,3.45,8.12,1.77,21.95.9,22.08.9.29-.02.5-.27.49-.55-.02-.29-.26-.52-.55-.49Zm-39.83.21c-2.5,1.07-5.61.92-8.53-.42-.94-.43-1.67-.89-2.24-1.42-2.14-2-2.53-4.88-2.55-7.32,2.59.82,10.12,3.19,17.42,5.35-.88,1.69-2.35,3.07-4.1,3.82Z"/>
          </g>
          <g>
            <path class="cls-8" d="m149.42,74.79c-3.79,1.88-7.46,4.14-10.38,7.22-2.91,3.08-5.03,7.04-5.28,11.27-.31,5.05,2.01,10.02,1.5,15.05,1.13-5.74,8.16-8.22,11.08-13.29,3.21-5.58,1.07-14.13,3.08-20.24Z"/>
            <path class="cls-8" d="m50.95,154.67c-3.79,1.88-7.46,4.14-10.38,7.22-2.91,3.08-5.03,7.04-5.28,11.27-.31,5.05,2.01,10.02,1.5,15.05,1.13-5.74,8.16-8.22,11.08-13.29,3.21-5.58,1.07-14.13,3.08-20.24Z"/>
            <path class="cls-8" d="m13.62,76.41c4.15.83,8.29,2.05,11.9,4.26,3.61,2.21,6.69,5.49,8.04,9.51,1.61,4.79.67,10.19,2.48,14.92-2.58-5.25-10.02-5.81-14.16-9.95-4.55-4.55-4.71-13.37-8.25-18.74Z"/>
          </g>
          <g>
            <path class="cls-1" d="m152.57,44.21h-8.53l3.56-4.93c.17-.23.12-.56-.12-.73-.23-.17-.56-.12-.73.12l-3.04,4.21v-12.22c0-.29-.23-.52-.52-.52s-.52.23-.52.52v12.83l-3.87-4.25c-.19-.21-.52-.23-.73-.03-.21.19-.23.52-.03.73l3.89,4.26h-8.28c-.29,0-.52.23-.52.52s.23.52.52.52h8.37l-3.75,5.19c-.17.23-.12.56.12.73.09.07.2.1.3.1.16,0,.32-.07.42-.22l3.57-4.95v14.46c0,.29.23.52.52.52s.52-.23.52-.52v-14.39l3.52,3.86c.1.11.24.17.38.17.13,0,.25-.04.35-.14.21-.19.23-.52.03-.73l-3.73-4.08h8.3c.29,0,.52-.23.52-.52s-.23-.52-.52-.52Z"/>
            <path class="cls-1" d="m152.57,178.9h-8.53l3.56-4.93c.17-.23.12-.56-.12-.73-.23-.17-.56-.12-.73.12l-3.04,4.21v-12.22c0-.29-.23-.52-.52-.52s-.52.23-.52.52v12.83l-3.87-4.25c-.19-.21-.52-.23-.73-.03-.21.19-.23.52-.03.73l3.89,4.26h-8.28c-.29,0-.52.23-.52.52s.23.52.52.52h8.37l-3.75,5.19c-.17.23-.12.56.12.73.09.07.2.1.3.1.16,0,.32-.07.42-.22l3.57-4.95v14.46c0,.29.23.52.52.52s.52-.23.52-.52v-14.39l3.52,3.86c.1.11.24.17.38.17.13,0,.25-.04.35-.14.21-.19.23-.52.03-.73l-3.73-4.08h8.3c.29,0,.52-.23.52-.52s-.23-.52-.52-.52Z"/>
            <path class="cls-1" d="m37.9,131.29h-8.53l3.56-4.93c.17-.23.12-.56-.12-.73-.23-.17-.56-.12-.73.12l-3.04,4.21v-12.22c0-.29-.23-.52-.52-.52s-.52.23-.52.52v12.83l-3.87-4.25c-.19-.21-.52-.23-.73-.03-.21.19-.23.52-.03.73l3.89,4.26h-8.28c-.29,0-.52.23-.52.52s.23.52.52.52h8.37l-3.75,5.19c-.17.23-.12.56.12.73.09.07.2.1.3.1.16,0,.32-.07.42-.22l3.57-4.95v14.46c0,.29.23.52.52.52s.52-.23.52-.52v-14.39l3.52,3.86c.1.11.24.17.38.17.13,0,.25-.04.35-.14.21-.19.23-.52.03-.73l-3.73-4.08h8.3c.29,0,.52-.23.52-.52s-.23-.52-.52-.52Z"/>
          </g>
        </g>
      </g>
    </g>
  </g>
</svg>