<?xml version="1.0" encoding="UTF-8"?>
<svg id="Layer_2" data-name="Layer 2" xmlns="http://www.w3.org/2000/svg" viewBox="0 0 170.36 206.47">
  <defs>
    <style>
      .cls-1 {
        fill: #b1cce8;
      }

      .cls-1, .cls-2, .cls-3, .cls-4, .cls-5, .cls-6, .cls-7 {
        stroke-width: 0px;
      }

      .cls-2 {
        fill: #fff;
      }

      .cls-3 {
        fill: #6f72fb;
      }

      .cls-4 {
        fill: #ca7260;
      }

      .cls-5 {
        fill: #e9bcfd;
      }

      .cls-6 {
        fill: #352d46;
      }

      .cls-7 {
        fill: #f4ece5;
      }
    </style>
  </defs>
  <g id="OBJECTS">
    <g>
      <path class="cls-2" d="m5.81,206.47c-3.21,0-5.81-2.6-5.81-5.81v-115.47c0-11.03,2.07-21.75,6.17-31.87.14-.36.3-.75.46-1.12C14.64,33.14,29.28,17.65,47.88,8.59c.21-.11.47-.23.72-.35C60.08,2.77,72.39,0,85.19,0c22.75,0,44.14,8.86,60.23,24.95,8.53,8.53,15.03,18.55,19.33,29.77.08.2.17.45.26.69.02.07.05.13.07.2,3.5,9.44,5.28,19.39,5.28,29.57v115.47c0,3.21-2.6,5.81-5.81,5.81H5.81Z"/>
      <g>
        <path class="cls-1" d="m165.29,85.68v115.47h-52.17l-.66-.47-.19.47h-20.61l-.54-.57-.19.57h-49.14l-.02-.51-.93.51H6.55v-42.91l.8-1.14-.8.22v-70.04l.47-.16-.47-.68v-.74c0-10.5,2.03-20.52,5.74-29.69.07-.19.88-.66.95-.84.06-.15-.6-.01-.54-.16,7.46-17.78,21.21-32.27,38.46-40.68.11-.05.89.96,1,.9.1-.05-.47-1.17-.36-1.21,10.33-4.93,21.91-7.69,34.12-7.69,21.92,0,41.76,8.89,56.12,23.25,7.81,7.81,13.99,17.24,18.01,27.74.05.13-1.23,1.09-1.18,1.23.04.1,1.4-.64,1.44-.54h0c3.22,8.63,4.97,17.96,4.97,27.7Z"/>
        <g>
          <g>
            <path class="cls-6" d="m147.58,71.06c-3.82,5.85-9.53,17.12-4.98,26.92,1.82,3.9,5.06,7,8.2,10,3.34,3.2,6.81,6.51,8.6,10.83.39.95.81,2.19.58,3.47-.26,1.42-1.25,2.53-2.19,3.43-4.72,4.53-10.9,7.03-16.9,9.44-3.14,1.27-6.39,2.58-9.39,4.16-14.5,7.68-24.38,23.53-24.58,39.47-.11,7.9,2.17,15.69,6.2,22.36h-.84c-3.96-6.7-6.19-14.49-6.08-22.37.21-16.18,10.25-32.3,24.97-40.09,3.03-1.61,6.3-2.92,9.46-4.2,5.93-2.38,12.05-4.85,16.67-9.29.85-.81,1.75-1.82,1.98-3.03.19-1.09-.18-2.21-.53-3.06-1.74-4.18-5.14-7.44-8.44-10.59-3.19-3.04-6.48-6.19-8.36-10.23-4.7-10.12,1.13-21.65,5.03-27.62,2.61-3.99,7.08-9.74,13.09-13.37.09.22.17.46.26.69h0c-5.84,3.56-10.2,9.18-12.74,13.08Z"/>
            <g>
              <path class="cls-6" d="m19.25,53.3c-2.55.75-4.86,1.64-6.95,2.68.14-.34.27-.68.42-1.01,1.93-.91,4.04-1.7,6.33-2.37,2.24-.65,4.55-1.18,6.8-1.69,4.52-1.03,9.21-2.09,13.35-4.26,8.34-4.35,14.03-13.24,14.49-22.63.16-3.42-.73-7.05-2.51-9.72.21-.11.43-.21.64-.31,1.85,2.8,2.77,6.55,2.6,10.07-.47,9.65-6.31,18.77-14.88,23.24-4.22,2.21-8.95,3.28-13.52,4.32-2.24.5-4.54,1.03-6.76,1.68Z"/>
              <path class="cls-6" d="m29.84,148.41c-1.37.47-2.75.93-4.14,1.38-6.66,2.22-13.51,4.48-19.16,8.41v-.88c5.64-3.81,12.37-6.03,18.93-8.21,1.38-.46,2.76-.91,4.12-1.38,8.34-2.88,19.91-7.89,24.08-18.17,4.63-11.45-2.65-24.68-12.07-30.36-5.79-3.5-12.55-5.12-19.08-6.69-2.92-.71-5.95-1.43-8.86-2.32-2.25-.69-4.77-1.58-7.12-2.92v-.84c2.38,1.42,5.02,2.36,7.33,3.07,2.89.88,5.9,1.61,8.81,2.31,6.59,1.58,13.4,3.23,19.28,6.78,9.89,5.97,17.21,19.29,12.37,31.25-4.27,10.56-16.03,15.66-24.5,18.58Z"/>
              <path class="cls-6" d="m91.65,201.15h-.76c-1.3-4.58-3.08-8.35-5.39-11.52-5.01-6.86-12.82-10.57-19.91-9.46-5.02.78-9.95,3.92-14.66,9.31-1.8,2.07-3.49,4.32-5.1,6.49-1.29,1.72-2.61,3.5-4.02,5.19h-.95c1.55-1.83,2.98-3.76,4.39-5.63,1.63-2.18,3.31-4.44,5.14-6.53,4.83-5.52,9.91-8.74,15.1-9.55,7.35-1.15,15.44,2.68,20.6,9.75,2.41,3.29,4.24,7.2,5.57,11.95Z"/>
            </g>
          </g>
          <g>
            <path class="cls-7" d="m133,54.76H39.46s-3.44,34.4-.69,69.84c2.75,35.43,19.95,64.68,19.95,64.68h55.01s17.2-29.24,19.95-64.68c2.75-35.43-.69-69.84-.69-69.84Z"/>
            <g>
              <path class="cls-5" d="m127.6,104.02c-4.57-1.11-4.64,3.92-8.05,7.11-2.28,2.12-3.72,6.42-5.6,8.9-1.89,2.48-7.45,8.05-10.55,7.75-2.59-.24-7.26,1.2-9.56,0-4.51-2.35-7.3-3.21-11.37-.16-5.62,4.16-9.28,21.49-16.07,23.16-3.98.98-11.48-14.36-15.58-14.59-1.65-.1-1.31-6.26-2.88-5.89-.22-1.74-.41-3.52-.54-5.3-2.3-29.63.57-58.39.57-58.39h78.2s1.66,16.52,1.44,37.41Z"/>
              <path class="cls-3" d="m127.6,104.02c-.06,6.67-.31,13.8-.87,20.98-1.41,18.24-7.41,34.51-11.81,44.33-2.65,5.93-8.53,9.74-15.03,9.74h-25.67c-6.49,0-12.37-3.82-15.03-9.74-3.97-8.86-9.23-22.96-11.26-39.03,1.57-.37,3.19-.52,4.83-.43,4.1.23,8.2,2.04,12.18,1.07,6.79-1.68,9.28-10.1,14.89-14.27,4.08-3.04,9.92-3.51,14.43-1.15,2.3,1.2,4.39,3.1,6.97,3.34,3.1.3,5.9-1.9,7.79-4.38,1.89-2.48,3.26-5.37,5.54-7.5,3.41-3.2,8.46-4.08,13.04-2.96Z"/>
            </g>
            <g>
              <rect class="cls-6" x="79.57" y="17.91" width=".97" height="87.44" transform="translate(-6.33 9.24) rotate(-6.36)"/>
              <g>
                <path class="cls-4" d="m116.05,41.91s-3.87,3.34-11.57,6.76c-.11.05-.66-.39-.77-.34-.09.04.25.57.16.61-5.89,2.55-13.92,5.09-24.06,6.27-1.83.21-3.6.35-5.3.43-.11,0-.22-.44-.34-.44-.1,0-.21.46-.31.46-6.55.22-12.12-.51-16.65-1.61-.12-.03,0-.67-.12-.7-.09-.02-.43.56-.51.54-9.04-2.31-13.74-6-13.74-6l30.2-29.83.37-.09.92-1.19.33-.33.3.52.34-.6,1.86,1.18,1.28,1.02.54.11,37.07,23.25Z"/>
                <g>
                  <g>
                    <path class="cls-6" d="m74.31,16.75l-17.11,37.28c-.21-.06-.43-.11-.64-.16l16.45-35.84,1.29-1.28Z"/>
                    <path class="cls-6" d="m74.5,55.62c-.21,0-.43.02-.65.02l.79-39.21.3-.3.34.21-.79,39.27Z"/>
                  </g>
                  <path class="cls-6" d="m104.47,48.66c-.2.09-.41.18-.61.26l-26.71-31.41,1.82,1.14,25.5,30.01Z"/>
                </g>
              </g>
            </g>
            <g>
              <path class="cls-7" d="m114.92,89.79c-.16,0-.32-.02-.49-.07-.33-.1-.6-.29-.86-.48-.19-.14-.37-.27-.57-.35-.43-.19-.93-.18-1.45-.17-.37,0-.76.01-1.13-.05-1.67-.3-2.68-2.01-2.78-3.46-.09-1.33.35-2.74,1.35-4.33,1.02-1.61,2.88-3.48,4.79-3.48.02,0,.03,0,.05,0,1.16.02,2.15.71,2.92,2.04.43.75.92,1.65,1.21,2.63.6,2.01.32,4.28-.75,6.09-.48.81-1.33,1.65-2.29,1.65Zm-3.03-1.57c.44,0,.89.03,1.31.22.24.11.45.26.65.4.24.17.47.33.72.41.84.25,1.72-.5,2.23-1.35,1-1.69,1.26-3.82.7-5.7-.28-.94-.75-1.8-1.17-2.53-.68-1.18-1.53-1.79-2.51-1.8-1.73-.01-3.47,1.74-4.43,3.26-.94,1.5-1.36,2.82-1.27,4.04.09,1.27.95,2.76,2.38,3.02.33.06.67.05,1.04.05.12,0,.24,0,.35,0Z"/>
              <path class="cls-7" d="m58.42,118.24c-.5,0-1.01-.1-1.51-.35-1.12-.56-1.85-1.83-1.82-3.17.03-1.21.65-2.43,1.67-3.27h0c1.23-1.02,3.02-1.35,4.46-.84,1.23.44,2.05,1.42,2.31,2.75.15.78-.04,1.66-.54,2.41-.4.61-1.01,1.16-1.81,1.63-.51.3-1.58.84-2.76.84Zm1.37-7.39c-.97,0-1.97.34-2.73.97h0c-.91.75-1.47,1.84-1.5,2.91-.02,1.15.6,2.25,1.56,2.73,1.02.51,2.44.33,3.8-.48.73-.43,1.29-.93,1.65-1.48.43-.65.6-1.39.47-2.05-.23-1.16-.94-2.01-2-2.39-.4-.14-.82-.21-1.26-.21Z"/>
              <path class="cls-7" d="m94.82,133.42c-.44,0-.9-.11-1.39-.32h0c-2.25-.99-4.1-5.14-3.25-7.29.27-.69,1.06-1.72,3.32-.92,1.72.6,3.17,2.14,3.7,3.9.46,1.54.12,3.22-.84,4.06-.43.38-.95.57-1.54.57Zm-2.78-8.33c-.6,0-1.14.22-1.41.9-.7,1.76.82,5.71,2.99,6.67h0c.97.43,1.8.37,2.41-.17.81-.72,1.1-2.21.7-3.56-.48-1.6-1.84-3.04-3.39-3.58-.41-.14-.87-.26-1.3-.26Z"/>
              <path class="cls-7" d="m118.88,135.84c-.18,0-.35-.02-.52-.05-.9-.18-1.72-.89-2.14-1.84-.34-.76-.45-1.7-.34-2.77.14-1.27.53-2.33,1.17-3.14,1.51-1.92,2.85-1.67,3.52-1.35,1.62.77,2.64,3.46,2.15,5.65-.32,1.42-1.23,2.6-2.43,3.17-.46.22-.95.33-1.41.33Zm.73-8.89c-.72,0-1.46.47-2.18,1.39h0c-.58.74-.94,1.71-1.06,2.89-.11.99,0,1.84.3,2.53.36.81,1.05,1.41,1.79,1.56.5.1,1.08.01,1.63-.25,1.07-.5,1.87-1.56,2.16-2.84.44-1.95-.47-4.43-1.88-5.1-.25-.12-.5-.18-.75-.18Z"/>
              <path class="cls-7" d="m95.83,91.3c-1.17,0-2.42-.48-3.05-1.58-.28-.49-.43-1.09-.46-1.84h0c-.11-2.47,1.22-3.42,2.01-3.77,1.51-.65,3.55-.23,4.73.98,1,1.03,1.2,2.44.53,3.88-.48,1.02-1.47,1.84-2.65,2.18-.35.1-.73.15-1.11.15Zm-3.03-3.44c.03.67.16,1.2.4,1.62.71,1.25,2.39,1.55,3.61,1.2,1.05-.3,1.93-1.02,2.35-1.92.58-1.26.43-2.45-.44-3.34-1.03-1.06-2.87-1.44-4.19-.87-1.18.51-1.8,1.68-1.72,3.3Z"/>
              <path class="cls-7" d="m79.42,115.63c-.92,0-1.75-.34-2.38-1-.94-.98-1.31-2.54-.91-3.89.38-1.28,1.34-2.17,2.71-2.5,2.35-.56,3.87.97,4.28,2.64.45,1.85-.32,4.03-2.67,4.62-.35.09-.7.13-1.03.13Zm.91-.6l.06.24-.06-.24c2.04-.51,2.71-2.42,2.31-4.03-.37-1.49-1.65-2.78-3.69-2.29-1.2.29-2.03,1.06-2.36,2.17-.35,1.19-.03,2.56.8,3.42.73.76,1.78,1.02,2.94.73Z"/>
              <path class="cls-7" d="m54.51,135.69s-.09,0-.13,0c-1.14-.06-2.24-.88-2.74-2.05-.42-.98-.44-2.2-.08-3.44.29-.95.73-1.7,1.33-2.21h0c.71-.61,1.59-.84,2.46-.65,1,.22,1.87.96,2.33,1.98.34.74.45,1.65.32,2.62-.14,1.03-.51,1.92-1.07,2.57-.64.74-1.54,1.18-2.42,1.18Zm.23-7.93c-.45,0-.99.14-1.53.6h0c-.53.45-.92,1.12-1.18,1.98-.34,1.13-.32,2.23.06,3.11.43,1,1.36,1.71,2.32,1.76.78.02,1.58-.34,2.16-1.01.51-.59.84-1.39.96-2.32.12-.88.02-1.69-.28-2.35-.4-.88-1.15-1.52-2-1.71-.15-.03-.32-.06-.5-.06Z"/>
              <path class="cls-7" d="m52.84,83.8c-.5,0-.98-.11-1.4-.35-.94-.52-1.57-1.61-1.65-2.83h0c-.1-1.61.83-4.76,2.99-5.02.9-.11,1.79.18,2.51.81.82.72,1.32,1.78,1.33,2.85.02,1.45-.49,2.76-1.4,3.61-.66.61-1.53.94-2.37.94Zm-2.57-3.21c.07,1.06.61,2,1.4,2.44.96.53,2.31.31,3.21-.52.81-.75,1.26-1.93,1.25-3.24-.01-.91-.46-1.87-1.17-2.49-.62-.54-1.38-.78-2.13-.69-1.7.21-2.67,2.85-2.56,4.51h0Z"/>
            </g>
            <g>
              <g>
                <g>
                  <path class="cls-6" d="m70.28,134.34c-2.86.24-5.79-.61-8.07-2.34-.6-.46-1.17-.98-1.58-1.62-.72-1.12-.91-2.5-1.07-3.82,1.57.1,3.15-.26,4.67.14,1.52.4,3,1.1,4.07,2.25,1.3,1.39,1.81,3.5,1.99,5.4Z"/>
                  <path class="cls-6" d="m70.36,134.06c-.89-2.28-1.79-4.61-1.89-7.05s.75-5.07,2.75-6.48c.51,1.32,1.52,2.39,2.17,3.65,1.21,2.35.85,5.42-.88,7.41-.7.81-1.55,1.57-2.15,2.47Z"/>
                </g>
                <g>
                  <path class="cls-4" d="m66.93,132.74c-2.07.87-4.13,1.92-5.68,3.55-1.55,1.63-2.54,3.92-2.14,6.14.29,1.57,1.23,2.95,2.4,4.04,1.16,1.09,2.54,1.91,3.91,2.73,2.15,1.28,4.3,2.56,6.44,3.84.9.54,1.82,1.08,2.85,1.32,1.02.24,2.18.13,2.99-.54.61-.51.96-1.26,1.27-1.99,1.9-4.35,3.76-8.75,4.91-13.35.28-1.14.52-2.31.43-3.48-.16-1.95-1.34-3.8-3.04-4.77-2.31-1.32-4.15-.55-6.42.15-2.66.82-5.33,1.28-7.93,2.37Z"/>
                  <g>
                    <path class="cls-6" d="m64.81,140.17c.25.75.13,1.48-.29,1.62-.41.14-.96-.36-1.21-1.11s-.13-1.48.29-1.62c.41-.14.96.36,1.21,1.11Z"/>
                    <path class="cls-6" d="m69.72,138.51c.25.75.13,1.48-.29,1.62-.41.14-.96-.36-1.21-1.11-.25-.75-.13-1.48.29-1.62.41-.14.96.36,1.21,1.11Z"/>
                    <path class="cls-6" d="m73.12,148.57c.25.75.13,1.48-.29,1.62-.41.14-.96-.36-1.21-1.11-.25-.75-.13-1.48.29-1.62.41-.14.96.36,1.21,1.11Z"/>
                    <path class="cls-6" d="m69,144.05c.25.75.13,1.48-.29,1.62-.41.14-.96-.36-1.21-1.11-.25-.75-.13-1.48.29-1.62.41-.14.96.36,1.21,1.11Z"/>
                    <path class="cls-6" d="m74.63,136.85c.25.75.13,1.48-.29,1.62s-.96-.36-1.21-1.11c-.25-.75-.13-1.48.29-1.62.41-.14.96.36,1.21,1.11Z"/>
                    <path class="cls-6" d="m78.12,147.16c.25.75.13,1.48-.29,1.62-.41.14-.96-.36-1.21-1.11-.25-.75-.13-1.48.29-1.62.41-.14.96.36,1.21,1.11Z"/>
                    <path class="cls-6" d="m73.82,142.4c.25.75.13,1.48-.29,1.62-.41.14-.96-.36-1.21-1.11s-.13-1.48.29-1.62c.41-.14.96.36,1.21,1.11Z"/>
                    <path class="cls-6" d="m78.85,140.69c.25.75.13,1.48-.29,1.62s-.96-.36-1.21-1.11c-.25-.75-.13-1.48.29-1.62.41-.14.96.36,1.21,1.11Z"/>
                    <path class="cls-6" d="m79.54,135.18c.25.75.13,1.48-.29,1.62-.41.14-.96-.36-1.21-1.11-.25-.75-.13-1.48.29-1.62.41-.14.96.36,1.21,1.11Z"/>
                  </g>
                </g>
              </g>
              <g>
                <g>
                  <path class="cls-6" d="m107.47,115.86c2.76-.79,5.8-.52,8.38.73.68.33,1.34.74,1.87,1.28.93.96,1.38,2.27,1.8,3.54-1.56.2-3.04.87-4.61.77-1.57-.09-3.15-.5-4.43-1.42-1.55-1.11-2.46-3.08-3-4.91Z"/>
                  <path class="cls-6" d="m107.44,116.14c1.32,2.06,2.65,4.17,3.23,6.55.57,2.38.25,5.12-1.44,6.89-.76-1.2-1.95-2.05-2.84-3.16-1.64-2.07-1.88-5.15-.58-7.44.53-.93,1.22-1.85,1.62-2.84Z"/>
                </g>
                <g>
                  <path class="cls-4" d="m111.06,116.77c1.87-1.25,3.67-2.69,4.88-4.59s1.73-4.34.9-6.43c-.58-1.48-1.78-2.66-3.14-3.5-1.35-.84-2.87-1.38-4.37-1.91-2.36-.84-4.71-1.68-7.07-2.51-.99-.35-2-.71-3.05-.75-1.05-.04-2.17.3-2.83,1.11-.5.62-.69,1.43-.86,2.2-1.02,4.64-1.99,9.31-2.22,14.05-.06,1.17-.07,2.37.26,3.49.54,1.88,2.05,3.46,3.91,4.09,2.52.85,4.18-.27,6.27-1.39,2.45-1.32,4.98-2.29,7.32-3.86Z"/>
                  <g>
                    <path class="cls-6" d="m111.7,109.07c-.4-.69-.41-1.42-.03-1.64s1.01.16,1.4.85.41,1.42.03,1.64-1.01-.16-1.4-.85Z"/>
                    <path class="cls-6" d="m107.21,111.66c-.4-.69-.41-1.42-.03-1.64.38-.22,1.01.16,1.4.85.4.69.41,1.42.03,1.64s-1.01-.16-1.4-.85Z"/>
                    <path class="cls-6" d="m101.91,102.45c-.4-.69-.41-1.42-.03-1.64s1.01.16,1.4.85c.4.69.41,1.42.03,1.64s-1.01-.16-1.4-.85Z"/>
                    <path class="cls-6" d="m106.83,106.08c-.4-.69-.41-1.42-.03-1.64.38-.22,1.01.16,1.4.85.4.69.41,1.42.03,1.64s-1.01-.16-1.4-.85Z"/>
                    <path class="cls-6" d="m102.72,114.24c-.4-.69-.41-1.42-.03-1.64.38-.22,1.01.16,1.4.85.4.69.41,1.42.03,1.64s-1.01-.16-1.4-.85Z"/>
                    <path class="cls-6" d="m97.29,104.8c-.4-.69-.41-1.42-.03-1.64s1.01.16,1.4.85c.4.69.41,1.42.03,1.64s-1.01-.16-1.4-.85Z"/>
                    <path class="cls-6" d="m102.43,108.64c-.4-.69-.41-1.42-.03-1.64s1.01.16,1.4.85c.4.69.41,1.42.03,1.64s-1.01-.16-1.4-.85Z"/>
                    <path class="cls-6" d="m97.83,111.29c-.4-.69-.41-1.42-.03-1.64.38-.22,1.01.16,1.4.85.4.69.41,1.42.03,1.64s-1.01-.16-1.4-.85Z"/>
                    <path class="cls-6" d="m98.22,116.82c-.4-.69-.41-1.42-.03-1.64.38-.22,1.01.16,1.4.85.4.69.41,1.42.03,1.64s-1.01-.16-1.4-.85Z"/>
                  </g>
                </g>
              </g>
              <g>
                <g>
                  <path class="cls-6" d="m73.44,89.34c-.75-2.77-.43-5.81.86-8.36.34-.68.76-1.33,1.31-1.85.98-.91,2.3-1.34,3.57-1.74.18,1.56.82,3.05.7,4.62-.12,1.57-.55,3.15-1.49,4.41-1.14,1.53-3.12,2.41-4.96,2.92Z"/>
                  <path class="cls-6" d="m73.72,89.38c2.08-1.28,4.22-2.59,6.6-3.12,2.39-.53,5.12-.17,6.87,1.55-1.21.74-2.08,1.92-3.21,2.79-2.09,1.61-5.18,1.8-7.45.46-.92-.54-1.83-1.25-2.81-1.67Z"/>
                </g>
                <g>
                  <path class="cls-4" d="m74.41,85.76c-1.23-1.89-2.63-3.72-4.51-4.95-1.88-1.23-4.32-1.8-6.42-1-1.49.56-2.68,1.74-3.54,3.08-.86,1.34-1.42,2.85-1.98,4.34-.88,2.34-1.75,4.68-2.63,7.03-.37.98-.74,1.99-.79,3.04-.05,1.05.26,2.17,1.07,2.85.61.51,1.41.71,2.19.9,4.62,1.1,9.28,2.14,14.02,2.44,1.17.07,2.36.1,3.5-.2,1.89-.51,3.49-2,4.15-3.84.89-2.51-.2-4.18-1.29-6.29-1.28-2.47-2.21-5.01-3.75-7.38Z"/>
                  <g>
                    <path class="cls-6" d="m66.72,85.01c-.7.39-1.43.39-1.64,0-.21-.38.18-1,.88-1.39.7-.39,1.43-.39,1.64,0,.21.38-.18,1-.87,1.39Z"/>
                    <path class="cls-6" d="m69.23,89.54c-.7.39-1.43.39-1.64,0-.21-.38.18-1,.87-1.39.7-.39,1.43-.39,1.64,0,.21.38-.18,1-.87,1.39Z"/>
                    <path class="cls-6" d="m59.94,94.69c-.7.39-1.43.39-1.64,0-.21-.38.18-1,.87-1.39.7-.39,1.43-.39,1.64,0,.21.38-.18,1-.87,1.39Z"/>
                    <path class="cls-6" d="m63.65,89.83c-.7.39-1.43.39-1.64,0-.21-.38.18-1,.88-1.39.7-.39,1.43-.39,1.64,0,.21.38-.18,1-.87,1.39Z"/>
                    <path class="cls-6" d="m71.75,94.07c-.7.39-1.43.39-1.64,0s.18-1,.87-1.39c.7-.39,1.43-.39,1.64,0s-.18,1-.87,1.39Z"/>
                    <path class="cls-6" d="m62.22,99.35c-.7.39-1.43.39-1.64,0-.21-.38.18-1,.88-1.39.7-.39,1.43-.39,1.64,0,.21.38-.18,1-.87,1.39Z"/>
                    <path class="cls-6" d="m66.14,94.27c-.7.39-1.43.39-1.64,0-.21-.38.18-1,.87-1.39.7-.39,1.43-.39,1.64,0,.21.38-.18,1-.87,1.39Z"/>
                    <path class="cls-6" d="m68.72,98.91c-.7.39-1.43.39-1.64,0s.18-1,.87-1.39c.7-.39,1.43-.39,1.64,0s-.18,1-.87,1.39Z"/>
                    <path class="cls-6" d="m74.26,98.6c-.7.39-1.43.39-1.64,0-.21-.38.18-1,.87-1.39.7-.39,1.43-.39,1.64,0s-.18,1-.87,1.39Z"/>
                  </g>
                </g>
              </g>
            </g>
            <g>
              <path class="cls-7" d="m56.46,180.86c-6.05-8.38-8.11-19.35-5.52-29.36.85-3.3,2.68-7.53,6.53-8.97,3.73-1.4,7.73.48,10.04,2.95.32.34.61.69.89,1.05.09-.18.18-.35.27-.53,2.86-5.4,7.23-8.61,11.72-8.61h.06c2.91.02,5.87,1.42,8.12,3.83.71.76,1.35,1.62,1.94,2.58,1.69-2.83,4.74-6.61,9.16-7.11,3.76-.44,7.74,1.72,10.16,5.47.19.3.38.61.55.92,2.2-2.86,4.54-4.28,6.93-4.21,3.99.11,6.43,4.19,7.31,7.65,2.57,10.1-2,20.92-5.34,28.81l-.89-.38c3.28-7.77,7.78-18.41,5.3-28.2-.86-3.38-3.17-6.83-6.4-6.92-2.15-.08-4.26,1.31-6.32,4.07-.03.04-.07.09-.1.13,1.46,3.12,1.95,6.59,2.21,9.4.39,4.26.48,10.41-3.24,14.57-.89.99-1.79,1.45-2.68,1.35-1.3-.14-2.23-1.4-2.55-3.46-1.21-7.67.67-15.63,5.14-21.96-.22-.43-.46-.85-.72-1.26-1.82-2.82-5.37-5.47-9.23-5.03-4.27.49-7.19,4.43-8.71,7.13.69,1.3,1.26,2.77,1.73,4.37,1.43,4.94,1.59,10.2.44,15.22-.34,1.51-1.26,4.07-3.5,4.28-1.47.12-2.7-.91-3.28-2-.59-1.11-.71-2.4-.75-3.62-.2-6.28,1.24-12.54,4.17-18.09.03-.05.06-.11.09-.16-.62-1.1-1.31-2.06-2.09-2.89-2.08-2.22-4.78-3.51-7.42-3.53h-.05c-4.85,0-8.79,4.18-10.87,8.1-.17.32-.34.65-.49.98,1.56,2.4,2.44,5.16,3.1,7.65,1.01,3.85,1.93,8.82,0,13.17-.53,1.19-1.19,1.88-2.03,2.09-1.78.45-3.14-1.34-3.69-3.31-1.79-6.42-1.23-13.44,1.52-19.51-.34-.48-.71-.95-1.12-1.39-2.09-2.24-5.69-3.95-9-2.71-3.46,1.29-5.13,5.23-5.93,8.31-2.52,9.73-.51,20.4,5.37,28.55l-.78.57Zm12.09-32.35c-2.44,5.73-2.89,12.27-1.22,18.27.34,1.23,1.3,2.94,2.52,2.63.53-.14.99-.64,1.39-1.54,1.81-4.08.92-8.84-.05-12.53-.59-2.23-1.35-4.67-2.64-6.83Zm41.66-3.54c-4.04,5.99-5.78,13.66-4.66,20.79.12.75.52,2.52,1.7,2.65.56.06,1.19-.29,1.85-1.03,2.64-2.95,3.59-7.35,3-13.84-.24-2.57-.67-5.71-1.89-8.57Zm-19.7.86c-2.7,5.3-4.02,11.23-3.83,17.18.04,1.28.16,2.31.64,3.19.42.78,1.33,1.59,2.34,1.49,1.7-.16,2.42-2.52,2.65-3.53,1.11-4.86.96-9.95-.43-14.73-.38-1.31-.83-2.51-1.36-3.6Z"/>
              <path class="cls-7" d="m90,75.65c-1.84,0-3.76-.04-5.75-.13-32.32-1.48-38.99-9.41-39.26-9.74l.76-.61c.06.08,6.81,7.93,38.55,9.38,31.82,1.45,43.53-9.8,43.65-9.91l.68.69c-.45.45-10.67,10.33-38.63,10.33Z"/>
            </g>
          </g>
          <g>
            <g>
              <g>
                <path class="cls-6" d="m26.43,108.53c-3.84.67-7.92-.12-11.22-2.19-.87-.55-1.71-1.19-2.34-2-1.12-1.43-1.53-3.27-1.92-5.05,2.14-.05,4.23-.74,6.34-.39,2.11.35,4.19,1.13,5.79,2.55,1.94,1.73,2.88,4.52,3.35,7.07Z"/>
                <path class="cls-6" d="m26.51,108.15c-1.49-2.98-2.99-6.02-3.42-9.32-.43-3.3.4-6.95,2.93-9.11.85,1.73,2.35,3.05,3.38,4.68,1.93,3.03,1.81,7.23-.29,10.15-.85,1.18-1.91,2.32-2.6,3.6Z"/>
              </g>
              <g>
                <path class="cls-4" d="m21.7,106.78c-2.7,1.43-5.35,3.11-7.25,5.51-1.9,2.4-2.96,5.63-2.14,8.57.58,2.09,2.03,3.85,3.74,5.18s3.68,2.28,5.63,3.21c3.07,1.47,6.13,2.94,9.2,4.41,1.29.62,2.6,1.24,4.02,1.44,1.41.2,2.97-.09,3.99-1.1.77-.76,1.14-1.83,1.48-2.86,2.05-6.12,4.02-12.3,5.01-18.69.24-1.58.43-3.19.15-4.76-.46-2.63-2.28-4.98-4.7-6.09-3.29-1.51-5.69-.23-8.67.99-3.51,1.43-7.06,2.38-10.45,4.17Z"/>
                <g>
                  <path class="cls-6" d="m19.74,117.1c.44.99.35,1.99-.19,2.23-.54.24-1.34-.37-1.78-1.35-.44-.99-.35-1.99.19-2.23s1.34.37,1.78,1.35Z"/>
                  <path class="cls-6" d="m26.18,114.24c.44.99.35,1.99-.19,2.23-.54.24-1.34-.37-1.78-1.35-.44-.99-.35-1.98.19-2.23.54-.24,1.34.37,1.78,1.35Z"/>
                  <path class="cls-6" d="m32.02,127.45c.44.99.35,1.99-.19,2.23-.54.24-1.34-.37-1.78-1.35-.44-.99-.35-1.98.19-2.23.54-.24,1.34.37,1.78,1.35Z"/>
                  <path class="cls-6" d="m25.89,121.84c.44.99.35,1.99-.19,2.23-.54.24-1.34-.37-1.78-1.35-.44-.99-.35-1.98.19-2.23.54-.24,1.34.37,1.78,1.35Z"/>
                  <path class="cls-6" d="m32.62,111.39c.44.99.35,1.98-.19,2.23-.54.24-1.34-.37-1.78-1.35-.44-.99-.35-1.99.19-2.23.54-.24,1.34.37,1.78,1.35Z"/>
                  <path class="cls-6" d="m38.62,124.94c.44.99.35,1.98-.19,2.23s-1.34-.37-1.78-1.35c-.44-.99-.35-1.98.19-2.23.54-.24,1.34.37,1.78,1.35Z"/>
                  <path class="cls-6" d="m32.21,119.01c.44.99.35,1.99-.19,2.23-.54.24-1.34-.37-1.78-1.35-.44-.99-.35-1.99.19-2.23.54-.24,1.34.37,1.78,1.35Z"/>
                  <path class="cls-6" d="m38.82,116.09c.44.99.35,1.98-.19,2.23s-1.34-.37-1.78-1.35c-.44-.99-.35-1.98.19-2.23s1.34.37,1.78,1.35Z"/>
                  <path class="cls-6" d="m39.07,108.54c.44.99.35,1.99-.19,2.23s-1.34-.37-1.78-1.35c-.44-.99-.35-1.99.19-2.23s1.34.37,1.78,1.35Z"/>
                </g>
              </g>
            </g>
            <g>
              <g>
                <path class="cls-6" d="m146.98,169.61c-1.65-3.53-1.95-7.67-.82-11.4.3-.99.7-1.96,1.32-2.78,1.09-1.45,2.76-2.34,4.37-3.18.61,2.05,1.82,3.89,2.03,6.02.21,2.13,0,4.34-.95,6.25-1.16,2.32-3.61,3.96-5.95,5.09Z"/>
                <path class="cls-6" d="m147.36,169.59c2.48-2.21,5.03-4.46,8.1-5.74,3.07-1.28,6.82-1.43,9.56.45-1.45,1.28-2.33,3.07-3.63,4.49-2.42,2.65-6.51,3.64-9.87,2.38-1.36-.51-2.74-1.24-4.16-1.57Z"/>
              </g>
              <g>
                <path class="cls-4" d="m147.43,164.59c-2.09-2.23-4.4-4.35-7.21-5.56-2.81-1.21-6.2-1.38-8.83.17-1.86,1.1-3.18,2.97-4.02,4.97-.84,2-1.23,4.15-1.63,6.28l-1.85,10.03c-.26,1.41-.52,2.84-.34,4.25.18,1.42.86,2.85,2.1,3.56.94.54,2.06.62,3.14.68,6.45.37,12.93.66,19.34-.05,1.59-.18,3.19-.42,4.63-1.1,2.41-1.13,4.21-3.5,4.65-6.13.59-3.57-1.26-5.55-3.22-8.11-2.3-3.01-4.14-6.19-6.76-8.99Z"/>
                <g>
                  <path class="cls-6" d="m136.96,165.39c-.84.68-1.82.86-2.2.4-.37-.46,0-1.39.84-2.07.84-.68,1.82-.86,2.2-.4.37.46,0,1.39-.84,2.07Z"/>
                  <path class="cls-6" d="m141.4,170.86c-.84.68-1.82.86-2.2.4-.37-.46,0-1.39.84-2.07.84-.68,1.82-.86,2.2-.4.37.46,0,1.39-.84,2.07Z"/>
                  <path class="cls-6" d="m130.17,179.96c-.84.68-1.82.86-2.2.4s0-1.39.84-2.07c.84-.68,1.82-.86,2.2-.4s0,1.39-.84,2.07Z"/>
                  <path class="cls-6" d="m133.99,172.57c-.84.68-1.82.86-2.2.4s0-1.39.84-2.07,1.82-.86,2.2-.4c.37.46,0,1.39-.84,2.07Z"/>
                  <path class="cls-6" d="m145.83,176.34c-.84.68-1.82.86-2.2.4-.37-.46,0-1.39.84-2.07.84-.68,1.82-.86,2.2-.4.37.46,0,1.39-.84,2.07Z"/>
                  <path class="cls-6" d="m134.33,185.66c-.84.68-1.82.86-2.2.4-.37-.46,0-1.39.84-2.07.84-.68,1.82-.86,2.2-.4.37.46,0,1.39-.84,2.07Z"/>
                  <path class="cls-6" d="m138.37,177.93c-.84.68-1.82.86-2.2.4-.37-.46,0-1.39.84-2.07.84-.68,1.82-.86,2.2-.4.37.46,0,1.39-.84,2.07Z"/>
                  <path class="cls-6" d="m142.92,183.54c-.84.68-1.82.86-2.2.4-.37-.46,0-1.39.84-2.07.84-.68,1.82-.86,2.2-.4.37.46,0,1.39-.84,2.07Z"/>
                  <path class="cls-6" d="m150.27,181.81c-.84.68-1.82.86-2.2.4-.37-.46,0-1.39.84-2.07.84-.68,1.82-.86,2.2-.4.37.46,0,1.39-.84,2.07Z"/>
                </g>
              </g>
            </g>
          </g>
          <g>
            <path class="cls-2" d="m136.17,36.04h-6.72l2.8-3.88c.13-.18.09-.44-.09-.57-.18-.13-.44-.09-.57.09l-2.4,3.32v-9.63c0-.23-.18-.41-.41-.41s-.41.18-.41.41v10.11l-3.05-3.35c-.15-.17-.41-.18-.58-.03-.17.15-.18.41-.03.58l3.06,3.36h-6.53c-.23,0-.41.18-.41.41s.18.41.41.41h6.6l-2.95,4.09c-.13.18-.09.44.09.57.07.05.16.08.24.08.13,0,.25-.06.33-.17l2.81-3.9v11.4c0,.23.18.41.41.41s.41-.18.41-.41v-11.34l2.77,3.04c.08.09.19.13.3.13.1,0,.2-.04.28-.11.17-.15.18-.41.03-.58l-2.94-3.22h6.54c.23,0,.41-.18.41-.41s-.18-.41-.41-.41Z"/>
            <path class="cls-2" d="m36.86,171.99h-7.95l3.31-4.59c.16-.22.11-.52-.11-.68-.22-.16-.52-.11-.68.11l-2.83,3.92v-11.39c0-.27-.22-.48-.48-.48s-.48.22-.48.48v11.95l-3.61-3.96c-.18-.2-.49-.21-.68-.03-.2.18-.21.49-.03.68l3.62,3.97h-7.71c-.27,0-.48.22-.48.48s.22.48.48.48h7.8l-3.49,4.84c-.16.22-.11.52.11.68.09.06.18.09.28.09.15,0,.3-.07.39-.2l3.33-4.61v13.47c0,.27.22.48.48.48s.48-.22.48-.48v-13.41l3.28,3.59c.1.1.23.16.36.16.12,0,.23-.04.33-.13.2-.18.21-.49.03-.68l-3.47-3.81h7.73c.27,0,.48-.22.48-.48s-.22-.48-.48-.48Z"/>
          </g>
        </g>
      </g>
    </g>
  </g>
</svg>