<?xml version="1.0" encoding="UTF-8"?>
<svg id="Layer_2" data-name="Layer 2" xmlns="http://www.w3.org/2000/svg" viewBox="0 0 206.47 206.47">
  <defs>
    <style>
      .cls-1 {
        fill: #fff;
      }

      .cls-1, .cls-2, .cls-3, .cls-4, .cls-5, .cls-6, .cls-7, .cls-8 {
        stroke-width: 0px;
      }

      .cls-2 {
        fill: #6f72fb;
      }

      .cls-3 {
        fill: #ca7260;
      }

      .cls-4 {
        fill: #efbf69;
      }

      .cls-5 {
        fill: #352d46;
      }

      .cls-6 {
        fill: #eaa68f;
      }

      .cls-7 {
        fill: #c5d579;
      }

      .cls-8 {
        fill: #f4ece5;
      }
    </style>
  </defs>
  <g id="OBJECTS">
    <g>
      <path class="cls-1" d="m103.23,206.47c-38.2,0-73.1-20.94-91.1-54.64-.17-.3-.33-.6-.48-.9-4-7.66-7.02-15.81-8.98-24.24-1.78-7.63-2.68-15.52-2.68-23.45,0-9.61,1.32-19.12,3.92-28.28,5.15-18.09,15.16-34.41,28.98-47.28l7.95-14.77c-.17-2.83,1.57-5.51,4.37-6.4.66-.2,1.29-.3,1.92-.3,2.07,0,3.95,1,5.12,2.61l3.87,1.54c6.84-4.58,9.75-4.58,10.78-4.58.18,0,.37,0,.54.02.38.02.77.08,1.16.17,11.09-3.96,22.72-5.96,34.63-5.96,14.18,0,27.92,2.82,40.83,8.39.29.13.55.24.8.36,24.46,10.78,43.54,30.3,53.76,54.97.13.3.25.59.37.9,4.96,12.26,7.48,25.25,7.48,38.62,0,1.94-.06,3.95-.18,5.97-.01.33-.03.66-.06.98-1.46,21.97-9.71,42.49-23.87,59.36-.2.24-.4.47-.61.7-7.27,8.52-15.72,15.7-25.22,21.42,0,.22-.01.44-.04.66-.32,2.95-2.78,5.21-5.75,5.29l-6,.16c-6.62,2.91-13.56,5.12-20.66,6.57-.33.08-.65.14-.99.2-6.47,1.28-13.15,1.92-19.88,1.92Z"/>
      <g>
        <path class="cls-2" d="m200.61,102.56c0,1.91-.06,3.8-.17,5.68,0,.13-1.12.43-1.13.56,0,.12,1.09.07,1.08.19-1.39,21.3-9.62,40.73-22.54,56.1-.08.1-1-1.1-1.08-1-.08.09.67,1.48.59,1.57-8.56,10.06-19.15,18.34-31.13,24.23-.9.46-1.82.88-2.74,1.31-6.5,2.95-13.4,5.21-20.59,6.67-.13.03-.69-.92-.82-.9-.12.02.19,1.03.07,1.05-6.09,1.21-12.38,1.83-18.84,1.83-37.22,0-69.55-20.89-85.9-51.59-.05-.09.54-.35.49-.44-.08-.15-.8-.13-.87-.28-3.74-7.15-6.61-14.82-8.48-22.87-1.65-7.1,20.89-20.4,20.89-28.01,0-9.24-22.13-12.28-19.73-20.76,5.02-17.63,14.88-33.22,28.04-45.23,3.17-2.9,6.53-5.58,10.07-8.03h0c3.03-2.12,6.18-4.06,9.44-5.81.12-.07.25-.14.37-.2.02,0,.04-.02.06-.03.33-.18.65-.35.98-.51,2.93-1.51,5.94-2.89,9.04-4.1.06-.03.13-.06.2-.08.24-.1.48-.19.71-.27,10.78-4.13,22.48-6.38,34.7-6.38,13.67,0,26.68,2.82,38.48,7.91.11.05-.45,1.25-.34,1.3.12.05.9-1.05,1.03-.99,22.91,10.08,41.2,28.74,50.78,51.92.05.11-1.14.53-1.09.64.05.12,1.33-.06,1.38.06,4.56,11.25,7.07,23.57,7.07,36.45Z"/>
        <g>
          <g>
            <path class="cls-5" d="m122.9,197.88c-.25.06-.49.11-.75.15-.73-1.71-1.29-3.63-1.68-5.77-.78-4.32-.77-8.75-.76-13.05,0-2.32,0-4.7-.11-7.03-.41-8.17-2.6-14.29-6.53-18.2-4.21-4.21-10.88-5.91-16.59-4.24-5.47,1.6-10.22,5.86-14.97,13.4-.89,1.44-1.77,2.92-2.61,4.35-2.65,4.5-5.38,9.15-9.22,12.81-3.77,3.59-9.5,5.99-13.8,3.22-3.12-2.01-4.08-5.76-5.01-9.39-.17-.64-.34-1.29-.5-1.9-3.96-14.1-18.34-24.52-32.95-23.96-.14-.24-.27-.49-.39-.72,15.06-.71,29.97,9.95,34.05,24.48.18.63.34,1.28.5,1.92.9,3.49,1.82,7.11,4.69,8.96,3.96,2.54,9.32.27,12.9-3.14,3.76-3.58,6.46-8.19,9.09-12.64.85-1.45,1.73-2.93,2.63-4.36,4.84-7.71,9.72-12.08,15.38-13.73,5.97-1.74,12.93.03,17.32,4.42,4.06,4.05,6.33,10.33,6.75,18.69.12,2.36.12,4.75.11,7.07,0,4.26-.02,8.67.75,12.91.39,2.13.95,4.05,1.7,5.76Z"/>
            <path class="cls-5" d="m200.44,108.24c0,.26-.02.5-.05.75-1.16.11-2.42.37-3.81.78-11.19,3.38-20.34,12.41-23.85,23.57-3.36,10.67-1.39,22.69,5.13,31.75-.16.2-.33.39-.49.57-6.73-9.26-8.79-21.6-5.33-32.54,3.58-11.39,12.92-20.61,24.35-24.05,1.47-.45,2.83-.72,4.07-.83Z"/>
            <path class="cls-5" d="m193.54,66.11c-4.87.79-9.68,2.45-14.36,4.08-6.41,2.23-13.02,4.5-19.74,4.5-1.43,0-2.85-.1-4.29-.33-8.87-1.41-16.64-7.74-19.81-16.13-2.19-5.81-2.07-12.14-1.8-16.4.52-8.17,2.46-18.96,8.24-28.65.23.1.46.2.68.31-5.74,9.59-7.67,20.3-8.19,28.4-.43,6.66.13,11.77,1.75,16.08,3.08,8.16,10.62,14.31,19.23,15.67,8.02,1.28,15.62-1.36,23.67-4.15,4.66-1.61,9.44-3.27,14.31-4.08.11.24.2.47.29.7Z"/>
          </g>
          <g>
            <g>
              <path class="cls-7" d="m116.04,26.99c.2,7.23,5.46,15.82,13.06,16.85,16.31-.81,10.62-26.51-2.95-27.71-6.43-.14-10.15,5.29-10.11,10.86Z"/>
              <path class="cls-3" d="m121.66,19.96c-1.04.63-2.14,1.4-2.11,2.28.03.9,1.35,1.5,2.7,1.5,1.35,0,2.69-.46,3.89-.99,1.36-.59,2.75-1.39,3.01-2.42.15-.57-.1-1.15-.66-1.54-1.84-1.26-5.09.12-6.83,1.17Z"/>
              <g>
                <path class="cls-8" d="m118.75,27.65c3.54-1.29,3.71,4.91,6.32,6.4,1.88,1.9-1.72,4.77-3.42,3.15-1.81-2.24-5.21-6.91-2.9-9.55Z"/>
                <path class="cls-8" d="m129.35,39.42c0,1-.81,1.81-1.81,1.81s-1.81-.81-1.81-1.81.81-1.81,1.81-1.81,1.81.81,1.81,1.81Z"/>
              </g>
            </g>
            <g>
              <path class="cls-7" d="m55.29,149.1c3.37,6.39,11.9,11.78,19.16,9.34,14.28-7.94-2.19-28.48-14.89-23.55-5.83,2.72-6.76,9.23-4.27,14.21Z"/>
              <path class="cls-3" d="m57.22,140.3c-.65,1.02-1.3,2.2-.89,2.98.42.8,1.87.75,3.08.15,1.21-.6,2.21-1.61,3.05-2.61.96-1.13,1.85-2.46,1.64-3.5-.12-.58-.6-.99-1.27-1.09-2.21-.31-4.52,2.36-5.61,4.07Z"/>
              <g>
                <path class="cls-8" d="m58.01,148.49c2.61-2.72,5.5,2.77,8.5,2.95,2.53.87.57,5.03-1.68,4.34-2.61-1.21-7.73-3.9-6.82-7.28Z"/>
                <path class="cls-8" d="m72.72,154.37c.44.9.07,1.98-.82,2.43s-1.98.07-2.43-.82c-.44-.9-.07-1.98.82-2.43.9-.44,1.98-.07,2.43.82Z"/>
              </g>
            </g>
            <g>
              <path class="cls-7" d="m179.56,82.44c-6.8,2.46-13.29,10.17-11.88,17.7,5.91,15.23,28.51,1.72,25.37-11.53-1.9-6.15-8.22-7.96-13.49-6.17Z"/>
              <path class="cls-3" d="m188.01,85.55c-.92-.79-2.01-1.59-2.83-1.29-.85.31-1,1.75-.57,3.03.43,1.28,1.29,2.41,2.16,3.38.99,1.1,2.19,2.17,3.24,2.1.59-.04,1.06-.46,1.25-1.11.61-2.14-1.72-4.8-3.26-6.11Z"/>
              <g>
                <path class="cls-8" d="m179.79,85.22c2.34,2.96-3.49,5.07-4.08,8.02-1.21,2.38-5.06-.13-4.07-2.26,1.56-2.42,4.92-7.13,8.15-5.76Z"/>
                <path class="cls-8" d="m171.96,98.99c-.95.32-1.97-.2-2.29-1.15-.32-.95.2-1.97,1.15-2.29.95-.32,1.97.2,2.29,1.15s-.2,1.97-1.15,2.29Z"/>
              </g>
            </g>
          </g>
          <g>
            <g>
              <g>
                <path class="cls-5" d="m25.99,52.52l88.59,51.68c4.53,2.64,10.36.82,12.57-3.95l17.95-38.68c2.15-4.64-.03-10.13-4.79-12.03L47.47,12.6l-21.48,39.93Z"/>
                <g>
                  <path class="cls-8" d="m39.84,51.4c6.11,7.29,13.63,13.38,22,17.84,4.17,2.22,8.66,4.03,13.39,4.34,1.17.08,2.36.07,3.43-.32,1.05-.38,2-1.2,2.28-2.27.27-1.07-.13-2.24-.52-3.34-.19-.56-.38-1.12-.63-1.65-.24-.54-.45-1.09-.74-1.6-2.12-4.2-5.36-7.84-9.27-10.46-1.95-1.31-4.07-2.38-6.3-3.14-.55-.22-1.12-.36-1.68-.52-.56-.17-1.14-.29-1.72-.4-.57-.1-1.19-.29-1.62-.18-.42.08-.53.57-.45,1.13.11,1.11.64,2.16,1.4,3.01.75.86,1.69,1.56,2.69,2.17,1,.61,2.07,1.1,3.15,1.58,1.08.48,2.18.92,3.29,1.32,2.22.8,4.5,1.44,6.82,1.85,2.31.39,4.69.68,6.99.45,1.15-.12,2.29-.37,3.32-.85,1.03-.47,1.93-1.2,2.48-2.16.57-.95.73-2.11.61-3.23-.12-1.13-.47-2.24-.98-3.29-.99-2.1-2.53-3.92-4.33-5.41-1.8-1.5-3.85-2.7-5.98-3.7-1.06-.51-2.16-.95-3.26-1.37-1.11-.41-2.22-.83-3.35-1-.57-.09-1.14-.12-1.69-.04-.54.08-1.13.26-1.49.56-.36.29-.32.82-.08,1.31.25.49.59.96.98,1.37,1.62,1.64,3.91,2.5,6.06,3.44,2.19.89,4.44,1.66,6.73,2.23,2.27.56,4.7.82,6.9.08,1.09-.37,2.11-.98,2.91-1.8.8-.82,1.34-1.89,1.47-3.03.25-2.31-.94-4.56-2.42-6.33-1.5-1.82-3.35-3.33-5.35-4.58-2-1.26-4.15-2.28-6.35-3.15-2.21-.87-4.46-1.62-6.76-2.22-4.59-1.18-9.39-1.71-14.12-1.14,4.72-.63,9.55-.16,14.17.96,2.31.57,4.59,1.29,6.81,2.14,2.22.85,4.41,1.85,6.45,3.1,2.04,1.25,3.92,2.78,5.46,4.63.78.92,1.45,1.94,1.93,3.05.48,1.11.75,2.35.61,3.58-.13,1.23-.72,2.4-1.57,3.28-.85.89-1.93,1.53-3.09,1.93-2.34.79-4.86.52-7.17-.03-2.33-.57-4.59-1.33-6.81-2.22-1.11-.45-2.2-.93-3.27-1.47-1.07-.54-2.12-1.19-2.99-2.08-.43-.45-.8-.94-1.09-1.52-.14-.29-.24-.62-.24-.98,0-.36.18-.76.46-.99,1.12-.82,2.45-.85,3.65-.68,1.22.19,2.36.61,3.47,1.02,1.12.42,2.23.86,3.32,1.38,2.17,1,4.27,2.22,6.14,3.76,1.86,1.53,3.48,3.42,4.53,5.62.54,1.09.93,2.27,1.06,3.51.13,1.23-.04,2.55-.69,3.66-.63,1.12-1.67,1.95-2.79,2.46-1.13.53-2.34.8-3.55.93-1.21.13-2.44.09-3.63,0-1.2-.1-2.39-.26-3.57-.48-2.36-.43-4.67-1.09-6.92-1.91-1.13-.41-2.23-.86-3.33-1.35-1.09-.49-2.18-.99-3.22-1.63-1.03-.63-2.02-1.37-2.83-2.31-.82-.92-1.41-2.1-1.53-3.36-.04-.31-.05-.65.07-1.01.11-.37.47-.7.84-.77.75-.15,1.3.08,1.89.18.59.12,1.18.23,1.75.42.58.17,1.16.31,1.72.54,2.27.79,4.43,1.89,6.42,3.24,3.98,2.69,7.26,6.41,9.4,10.7.29.53.51,1.09.75,1.64.25.55.44,1.11.63,1.68.38,1.11.83,2.33.52,3.61-.35,1.26-1.42,2.16-2.58,2.57-1.18.42-2.43.42-3.62.33-4.81-.35-9.35-2.19-13.53-4.46-8.36-4.59-15.81-10.79-21.83-18.16Z"/>
                  <path class="cls-8" d="m25.74,52.14c-.18,0-.34-.13-.37-.32-.03-.2.11-.39.31-.42.08-.01,7.8-1.34,16.34-14.33,8.56-13.01,4.88-25,4.84-25.12-.06-.2.05-.4.24-.47.2-.06.4.05.47.24.04.12,3.83,12.45-4.93,25.76-8.75,13.29-16.52,14.6-16.85,14.65-.02,0-.04,0-.06,0Z"/>
                  <g>
                    <path class="cls-8" d="m134.36,59.42c-5.2-2.15-10.29-4.25-15.43-6.53-1.75-.78-2.56-2.81-1.78-4.57,0-.02.02-.04.03-.06.71-1.61,2.51-2.43,4.19-1.91,5.48,1.67,10.83,3.45,16.03,5.83,1.55.71,2.4,2.44,1.92,4.08-.11.38-.23.76-.37,1.14-.66,1.86-2.76,2.78-4.58,2.03Z"/>
                    <path class="cls-8" d="m113.68,45.87c0,1.72-1.4,3.12-3.12,3.12s-3.12-1.4-3.12-3.12,1.4-3.12,3.12-3.12,3.12,1.4,3.12,3.12Z"/>
                  </g>
                </g>
                <g>
                  <path class="cls-5" d="m158.16,72.23s-.34,4.55-4.89,15.5c-4.55,10.95-8.51,15.33-8.51,15.33l-4.82-2.14.15-1.19-.83.88-10.01-4.44-.68-.31-4.28-1.9,14.41-29.06,3.87,1.45.69.27,8.59,3.23-.06,1.45.75-1.18,5.61,2.11Z"/>
                  <g>
                    <path class="cls-8" d="m152.55,70.13c-2.68,10.86-6.91,21.18-12.61,30.8l-.68-.31c5.7-9.61,9.93-19.92,12.6-30.76l.69.27Z"/>
                    <path class="cls-8" d="m128.84,96.53c-.05,0-.11-.01-.16-.04-.18-.09-.26-.31-.18-.49l14.15-29.82c.09-.18.31-.26.49-.18.19.09.26.31.18.49l-14.15,29.82c-.06.13-.2.21-.34.21Z"/>
                  </g>
                </g>
              </g>
              <path class="cls-6" d="m101.04,88.66l-5.67,4.34-11.51,8.8s-15.41,7.84-33.36,12.13c-4.92,1.18-16.17,4.3-16.17,4.3l-.6.15-25.18,6.3c-1.65-7.1-2.52-14.5-2.52-22.11,0-9.24,1.29-18.18,3.69-26.65,3.57-.27,8.58-1.08,12.23-3.41,6.02-3.86,12.84-13.55,13.47-14.46.03-.05.05-.07.05-.07l28.69,16.83,1.01.59s0,0,0,0l2.13,1.25,12.34,7.24.42.25s0,0,.04-.01h0c.97-.28,15.31-4.23,20.92,4.56Z"/>
              <g>
                <path class="cls-5" d="m101.38,88.5s-.02-.04-.04-.06t0-.02c.03-.18-.08-.35-.25-.41-4.73-8.12-20.44-4.42-21.16-4.25-.03,0-.12.04-.25.09,0,0-.03,0-.04,0-1.77.68-10.81,4.14-12.97,5.14-2.31,1.07-11.48,3.74-11.57,3.77-.2.06-.31.26-.25.46.05.2.26.31.46.26.38-.11,9.32-2.72,11.68-3.81,2.32-1.08,13.09-5.18,13.15-5.2.02,0,.17-.04.45-.09,2.53-.53,15.17-2.8,19.55,3.5-2.78-.24-5.67.6-7.87,2.34-.23.18-.46.38-.66.58-2.06,1.9-3.37,4.63-3.54,7.43,0,.07.02.13.05.19-2.59,2-4.62,3.51-5.19,3.79-1.55.78-29.84,11.31-38.75,13.28-8.65,1.91-19.59,3.77-19.7,3.79-.2.03-.34.22-.3.43.03.18.19.31.37.31h.06c.07,0,4.05-.69,9.11-1.65,3.35-.63,7.17-1.39,10.62-2.15,8.95-1.98,37.36-12.56,38.92-13.33,1.18-.59,7.73-5.74,12.6-9.61,2.88-2.29,5.17-4.14,5.41-4.34.14-.11.18-.3.1-.46Zm-9.1,2.7c.15-.14.3-.27.46-.39,2.15-1.69,4.99-2.47,7.71-2.15-1.5,1.21-3.35,2.68-5.27,4.22-2.12,1.68-4.35,3.44-6.31,4.97.28-2.53,1.51-4.96,3.41-6.65Z"/>
                <path class="cls-5" d="m40.76,89.7c.1,0,.2-.04.28-.12,4.69-5.26,14.46-14.12,27.19-14.44.2,0,.37-.18.36-.38,0-.2-.17-.38-.38-.36-13.01.33-22.95,9.35-27.72,14.69-.14.15-.12.39.03.52.07.06.16.09.25.09Z"/>
              </g>
              <g>
                <path class="cls-6" d="m115.05,33.61s.86.15.78.24h0c-.7.8-4,4.15-8.58,3.26-3.77-.73-10.23-4.3-10.23-4.3,0,0-2.19.76-6.31-.5-4.25-1.3-5.9-4.89-5.9-4.89l-5.1-1.8s-1.51,2.65-5.43,1.39c-3.92-1.27-6.07-5.81-6.07-5.81l-10.74-4.68s7.58-5.68,9.99-4.8c2.4.89,9.1,6.57,9.1,6.57,0,0,10.74-3.16,13.02-1.77,2.27,1.4,7.32,7.08,7.32,7.08,0,0,5.69-1.76,7.32-1.26.53.16,1.98,1.44,3.68,3.08.09.09-.06.98.03,1.07.1.1.44-.61.54-.51,2.71,2.65,5.86,5.99,7.03,7.24.31.32-.43.42-.43.42Z"/>
                <g>
                  <path class="cls-5" d="m101.65,29.37c-.44-.57-2.37-3.1-4.63-5.82-2.91-3.49-6.36-7.3-7.89-7.71-2.54-.66-11.11,1.64-12.52,2.04-2.77-2.43-5.97-5.08-8-6.23-.62-.37-1.14-.58-1.49-.6-2.61-.18-9.59,4.95-9.89,5.17-.08.06-.12.14-.13.22-.04.1-.02.22.05.31.03.04.07.07.11.1.13.07.29.07.41-.03.04-.03.08-.06.13-.1,0,0,.03,0,.04-.03.24-.17.51-.37.83-.58,2.41-1.67,6.71-4.39,8.4-4.31.16,0,.38.08.63.21,1.42.63,4.16,2.77,7.07,5.27-.98,1.86-.5,4.4,1.09,5.78.86.74,1.99,1.12,3.13,1.12.73,0,1.45-.16,2.11-.48-.25.5-.65,1.19-1.29,1.78-1.05,1.01-2.72,1.76-5.28,1.01-2.77-.81-4.68-3.68-5.58-5.33-.38-.7-.57-1.18-.58-1.2-.08-.19-.3-.28-.48-.21-.19.08-.28.3-.21.48.02.04.09.22.23.5.06.12.13.26.21.42.84,1.66,2.94,5.08,6.21,6.04.77.23,1.49.34,2.19.34.96,0,1.84-.22,2.64-.65.51-.28.95-.62,1.31-.99.04-.03.07-.07.11-.11,1.12-1.19,1.52-2.55,1.54-2.63.04-.13,0-.28-.1-.37-.48-.46-2.4-2.26-4.72-4.32,2.23-.59,9.52-2.46,11.66-1.9.88.23,2.69,2,4.7,4.24-.6,2.08-.09,4.47,1.33,6.12,1.28,1.47,2.98,2.29,4.77,2.29.27,0,.53-.02.8-.06.11.15.23.3.34.44-.52.54-2.02,1.96-4.25,2.59-1.36.4-2.99.48-4.83-.09-3.44-1.09-5.32-3.01-6.25-4.32-.56-.8-.77-1.38-.78-1.4-.07-.19-.29-.29-.48-.22s-.3.28-.23.47c.02.04.11.28.31.65,0,0,0,.02,0,.03.69,1.29,2.63,4.06,7.19,5.49.99.31,1.91.44,2.78.44s1.76-.15,2.52-.38c.05,0,.09-.02.13-.04.23-.07.45-.14.65-.24,2.48-.96,3.96-2.71,3.98-2.74.11-.14.12-.33,0-.47Zm-20.63-6.49c-1.43.84-3.41.7-4.68-.39-1.3-1.13-1.7-3.17-.99-4.72,1.97,1.69,3.98,3.51,5.67,5.11Zm14.51,3.55c-1.15-1.34-1.62-3.23-1.28-4.95,2.05,2.34,4.22,5.01,5.74,6.96-1.67.08-3.28-.63-4.46-2.01Z"/>
                  <path class="cls-5" d="m115.48,33.2c-1.97.68-4.33.2-5.81-1.29s-1.98-3.95-1.22-5.95c-.2-.19-.39-.37-.57-.55-1.03,2.32-.53,5.22,1.27,7.03,1.19,1.18,2.84,1.8,4.5,1.8.73,0,1.47-.12,2.17-.38h0c.08-.1.13-.16.13-.16,0,0-.17-.19-.47-.5Z"/>
                </g>
              </g>
            </g>
            <g>
              <path class="cls-8" d="m171.32,111.74h-78.85s.5,38.88,38.52,39.66v35.14l-18.55,5.65c.17-.17,38.24-1.18,38.24-1.18l-17.71-4.43v-35.18c37.59-.57,38.35-39.66,38.35-39.66Z"/>
              <g>
                <path class="cls-4" d="m98.98,117.05h65.77s-.63,30.07-32.67,30.07-33.09-30.07-33.09-30.07Z"/>
                <g>
                  <g>
                    <path class="cls-7" d="m134.45,126.66c-1.35.28-2.58.97-3.69,1.78-1.95,1.43-3.65,3.4-4.15,5.78s.47,5.15,2.65,6.21c1.7.83,3.79.49,5.46-.4,2.1-1.12,3.72-3.09,4.42-5.36,1.16-3.74.21-9.03-4.7-8.01Z"/>
                    <path class="cls-8" d="m128.55,138c.24.3.54.57.91.64.58.12,1.17-.29,1.44-.82.27-.53.28-1.15.27-1.74-.03-1.36-.37-3.85-2.34-2.92-1.79.85-1.28,3.6-.27,4.85Z"/>
                    <path class="cls-3" d="m135.95,131.38c.03.21.09.43.2.6.1.16.25.28.42.37,1.66.88,2.72-1.58,2-2.93-1.05-2-2.83.48-2.62,1.96Z"/>
                  </g>
                  <path class="cls-5" d="m134.55,131.07c-.06,0-.12-.01-.18-.04-.18-.1-.25-.32-.15-.5l20.6-38.29c.1-.18.32-.25.5-.15.18.1.25.32.15.5l-20.6,38.29c-.07.12-.19.2-.33.2Z"/>
                </g>
                <g>
                  <g>
                    <g>
                      <path class="cls-1" d="m122.65,134.11l-.11-.38-1.67-5.44-.59-1.94h0c-.11,0-.23-.03-.35-.04.03.04.05.08.06.13l.56,1.85,1.72,5.63.09.28s.02.08.03.12l.3-.05s-.02-.1-.04-.16Zm.04.16s-.02-.1-.04-.16l-.11-.38-1.67-5.44-.59-1.94h0c-.2-.62-.8-1.03-1.45-.96l-1.77.2-3.96.44-3.94.43c-.41.05-.76.26-.98.6-.23.33-.3.74-.18,1.14l2.5,8.75c.12.41.42.72.78.88.26.1.53.14.82.08l8.11-1.74,1.43-.31c.36-.08.66-.29.86-.59.02,0,.03-.04.04-.06.17-.28.22-.61.16-.93Zm-.43.78s0,0,0,.02c-.15.25-.4.43-.68.49l-1.64.36-7.89,1.69c-.55.11-1.1-.21-1.25-.75l-2.51-8.75c-.09-.3-.04-.62.14-.89.17-.26.46-.43.76-.46l4.3-.48,4.21-.46h0l1.17-.13c.18-.02.37,0,.52.08.25.1.44.29.54.53.03.04.05.08.06.13l.56,1.85,1.72,5.63.09.28s.02.08.03.12c.05.26,0,.51-.13.73Zm.39-.94l-.11-.38-1.67-5.44-.59-1.94h0c-.11,0-.23-.03-.35-.04.03.04.05.08.06.13l.56,1.85,1.72,5.63.09.28s.02.08.03.12l.3-.05s-.02-.1-.04-.16Z"/>
                      <path class="cls-1" d="m119.99,129.91c-.04-.06-.09-.12-.16-.15-.11-.04-.23.03-.29.13-.06.1-.07.21-.08.33-.11,1.35.16,2.95.94,4.09.35.51.96.46.98-.25.01-.59-.35-1.39-.49-1.97-.19-.76-.43-1.53-.88-2.18Z"/>
                    </g>
                    <path class="cls-1" d="m109.72,129.5c.25.34.56.66.71,1.05.2.51.12,1.08.12,1.63,0,.55.13,1.16.59,1.46.45.3,1.09.17,1.48-.2.39-.37.56-.93.58-1.46,0-.3-.03-.6-.15-.87-.37-.83-1.37-1.11-2.19-1.5-.57-.28-.63-.58-.42-1.13.13-.35.28-.56-.19-.7-1.16-.37-.95,1.18-.54,1.73Z"/>
                  </g>
                  <g>
                    <g>
                      <path class="cls-1" d="m144.67,134.3l-.17-1.93-.48-5.86-.03-.3s0-.08,0-.12l-.31-.02v.17l.04.39.48,5.68.17,2.02c.11.04.22.07.33.11,0-.04-.02-.09-.02-.14Zm11.5-8.24c-.03-.43-.26-.8-.58-1.03-.23-.16-.49-.26-.78-.25l-8.29-.02h-1.45c-.38,0-.71.14-.97.4-.02,0-.03.03-.05.05-.22.23-.35.55-.36.87v.17l.04.39.48,5.68.17,2.02c.07.64.56,1.18,1.23,1.25l1.77.19,3.96.41,3.94.42c.41.04.8-.1,1.09-.38.3-.28.45-.67.42-1.08l-.59-9.08Zm-.03,9.94c-.23.22-.53.33-.85.29l-4.29-.45-4.22-.45-1.17-.12c-.19-.02-.36-.09-.5-.2-.22-.14-.37-.37-.43-.63,0-.04-.02-.09-.02-.14l-.17-1.93-.48-5.86-.03-.3s0-.08,0-.12c0-.26.1-.5.28-.69h0c.21-.23.48-.35.77-.35h1.68s8.08.02,8.08.02c.55,0,1.02.44,1.05,1l.61,9.09c.02.31-.1.61-.33.83Zm-11.47-1.69l-.17-1.93-.48-5.86-.03-.3s0-.08,0-.12l-.31-.02v.17l.04.39.48,5.68.17,2.02c.11.04.22.07.33.11,0-.04-.02-.09-.02-.14Z"/>
                      <path class="cls-1" d="m145.39,130.92c.03.07.06.14.13.18.1.06.23.02.31-.06.08-.08.12-.19.15-.3.39-1.3.47-2.91-.05-4.2-.23-.57-.84-.65-1.01.04-.14.57.04,1.43.06,2.03.03.79.09,1.58.4,2.32Z"/>
                    </g>
                    <path class="cls-1" d="m155.34,133.49c-.17-.39-.4-.76-.47-1.18-.09-.54.11-1.08.22-1.62.11-.54.12-1.16-.27-1.55-.38-.39-1.03-.4-1.49-.12-.46.28-.74.79-.87,1.31-.07.29-.1.59-.04.89.19.89,1.11,1.37,1.82,1.93.5.4.5.7.17,1.19-.2.32-.39.48.04.73,1.06.61,1.17-.95.89-1.58Z"/>
                  </g>
                </g>
                <path class="cls-8" d="m129.35,122.51c-22.32,0-32.33-6.27-32.43-6.34l.44-.68c.1.07,10.68,6.68,34.52,6.18,23.86-.5,35.09-6.31,35.2-6.37l.38.71c-.11.06-11.48,5.96-35.56,6.46-.87.02-1.72.03-2.55.03Z"/>
                <g>
                  <path class="cls-8" d="m142.46,143.99c-.64,0-1.27-.17-1.76-.63-.53-.5-.8-1.29-.7-2.07h0c.14-1.09,1.03-2.15,2.2-2.65.98-.42,1.97-.35,2.72.2.76.56,1.12,1.41.99,2.35-.15,1.12-.95,2.14-1.99,2.53-.44.17-.95.28-1.46.28Zm.99-5.13c-.34,0-.7.08-1.06.23-1,.43-1.79,1.36-1.9,2.26h0c-.08.62.13,1.26.54,1.65.72.67,1.87.57,2.71.25.86-.33,1.55-1.2,1.68-2.13.1-.76-.18-1.43-.8-1.88-.34-.25-.74-.37-1.18-.37Z"/>
                  <path class="cls-8" d="m127.2,130.58c-.28,0-.57-.03-.85-.1-.9-.22-1.66-.75-2.08-1.47-.48-.8-.51-1.81-.07-2.56h0c.52-.89,2.32-1.49,3.19-1.24.72.21,1.31.52,1.76.92.55.5.88,1.16.91,1.82.04.85-.45,1.71-1.23,2.19-.47.29-1.04.44-1.63.44Zm-2.58-3.88c-.34.59-.32,1.42.07,2.06.36.6,1.01,1.05,1.78,1.24.75.18,1.52.08,2.11-.28.62-.38,1.02-1.08.99-1.75-.02-.52-.3-1.06-.75-1.47-.39-.35-.91-.62-1.56-.81-.73-.21-2.25.37-2.63,1.01h0Z"/>
                  <path class="cls-8" d="m124.38,145.13c-.73,0-1.47-.38-1.89-1.02-.52-.8-.52-1.92,0-2.79.29-.49.71-.85,1.18-1h0c.64-.21,1.43.01,2.13.6.72.6,1.1,1.4,1,2.08-.06.42-.29.83-.71,1.27-.33.35-.64.58-.97.72-.24.1-.49.15-.75.15Zm-.55-4.34c-.35.12-.67.4-.91.78-.43.71-.43,1.62-.02,2.27.43.66,1.34.97,2.03.69.26-.11.52-.3.8-.6.35-.37.53-.69.58-1,.07-.5-.25-1.14-.83-1.63-.56-.47-1.19-.66-1.66-.51h0Z"/>
                  <path class="cls-8" d="m104.64,127.25c-.46,0-.89-.14-1.23-.42h0c-.91-.77-.93-2.2-.55-3.28.45-1.25,1.39-2.06,2.4-2.07.96-.04,1.63.48,1.92,1.37.42,1.32-.18,3.25-1.22,3.98-.4.28-.86.41-1.31.41Zm-.91-.8c.5.42,1.33.41,1.94-.02.88-.61,1.39-2.31,1.04-3.43-.15-.47-.52-1.03-1.42-1.03h-.02c-.97,0-1.65.94-1.94,1.74-.33.92-.33,2.11.4,2.73h0Z"/>
                  <path class="cls-8" d="m160.05,125.23c-.56,0-1.07-.19-1.4-.55-.18-.19-.33-.44-.43-.74h0c-.46-1.35.5-3.27,1.61-3.96.49-.31,1.08-.31,1.64-.02.79.41,1.43,1.34,1.49,2.17.09,1.28-.83,2.56-2.13,2.97-.26.08-.53.12-.79.12Zm-1.36-1.44c.08.23.19.42.32.56.44.47,1.18.45,1.68.29,1.07-.33,1.85-1.42,1.78-2.46-.04-.66-.58-1.44-1.22-1.77-.29-.15-.72-.27-1.16,0-.93.57-1.78,2.28-1.41,3.37h0Z"/>
                </g>
              </g>
            </g>
          </g>
          <g>
            <path class="cls-1" d="m115.3,172.76h-8.12l3.39-4.69c.16-.22.11-.53-.11-.69-.22-.16-.53-.11-.69.11l-2.89,4.01v-11.64c0-.27-.22-.49-.49-.49s-.49.22-.49.49v12.22l-3.69-4.04c-.18-.2-.5-.22-.7-.03-.2.18-.22.5-.03.7l3.7,4.06h-7.88c-.27,0-.49.22-.49.49s.22.49.49.49h7.97l-3.57,4.94c-.16.22-.11.53.11.69.09.06.19.09.29.09.15,0,.3-.07.4-.21l3.4-4.71v13.77c0,.27.22.49.49.49s.49-.22.49-.49v-13.7l3.35,3.67c.1.11.23.16.37.16.12,0,.24-.04.33-.13.2-.18.22-.5.03-.7l-3.55-3.89h7.9c.27,0,.49-.22.49-.49s-.22-.49-.49-.49Z"/>
            <path class="cls-1" d="m45.51,121.96h-8.12l3.39-4.69c.16-.22.11-.53-.11-.69-.22-.16-.53-.11-.69.11l-2.89,4.01v-11.64c0-.27-.22-.49-.49-.49s-.49.22-.49.49v12.22l-3.69-4.04c-.18-.2-.5-.22-.7-.03-.2.18-.22.5-.03.7l3.7,4.06h-7.88c-.27,0-.49.22-.49.5s.22.49.49.49h7.97l-3.57,4.94c-.16.22-.11.53.11.69.09.06.19.09.29.09.15,0,.3-.07.4-.21l3.4-4.71v13.77c0,.27.22.49.49.49s.49-.22.49-.49v-13.7l3.35,3.67c.1.11.23.16.37.16.12,0,.24-.04.33-.13.2-.18.22-.5.03-.7l-3.55-3.89h7.9c.27,0,.49-.22.49-.49s-.22-.5-.49-.5Z"/>
            <path class="cls-1" d="m166.56,51.79h-8.12l3.39-4.69c.16-.22.11-.53-.11-.69-.22-.16-.53-.11-.69.11l-2.89,4.01v-11.64c0-.27-.22-.49-.49-.49s-.49.22-.49.49v12.22l-3.69-4.04c-.18-.2-.5-.22-.7-.03-.2.18-.22.5-.03.7l3.7,4.06h-7.88c-.27,0-.49.22-.49.49s.22.49.49.49h7.97l-3.57,4.94c-.16.22-.11.53.11.69.09.06.19.09.29.09.15,0,.3-.07.4-.21l3.4-4.71v13.77c0,.27.22.49.49.49s.49-.22.49-.49v-13.7l3.35,3.67c.1.11.23.16.37.16.12,0,.24-.04.33-.13.2-.18.22-.5.03-.7l-3.55-3.89h7.9c.27,0,.49-.22.49-.49s-.22-.49-.49-.49Z"/>
          </g>
        </g>
      </g>
    </g>
  </g>
</svg>